<?xml version="1.0" encoding="UTF-8"?><svg id="Layer_2" xmlns="http://www.w3.org/2000/svg" viewBox="0 0 2105.36 1698.9"><defs><style>.cls-1{fill:none;stroke:#ffffff;stroke-linecap:round;stroke-miterlimit:10;stroke-width:5px;}</style></defs><path id="_097" class="cls-1" d="M773.33,581.75s0-107.15-15.31-156.47,49.32-180.28,198.99-216"/>
<path id="_096" class="cls-1" d="M764.83,119.13s-78.24,79.94-45.92,115.65,70.51,56.23,76.08,78.29"/><path id="_095" class="cls-1" d="M620.26,345.34s-198.99-125.86-227.91,62.93"/><path id="_094" class="cls-1" d="M184.86,573.24s-102.05-23.81-85.04-74.83,128.22-204.74,226.2-185.33,81.84,43.18,81.84,43.18"/><path id="_093" class="cls-1" d="M278.4,619.16s-91.84-15.31-93.54-85.04,35.72-122.46,108.85-110.55"/><path id="_092" class="cls-1" d="M536.92,792.64s-238.11-73.13-243.21-130.96,37.42-69.73,91.84-62.93"/><path id="_091" class="cls-1" d="M408.86,644.68s-65.82-156.47,112.76-134.36"/><path id="_090" class="cls-1" d="M543.73,619.16s-103.75-216,158.17-139.46"/><line id="_089" class="cls-1" x1="253.38" y1="493.31" x2="327.53" y2="601.54"/><path id="_088" class="cls-1" d="M620.26,739.92s6.8-102.08,47.62-142.88"/><path id="_087" class="cls-1" d="M689.99,541.23s5.83-124.16,73.5-92.84"/><path id="_086" class="cls-1" d="M536.92,848.77s-37.42-83.34,130.96-122.46c127.1,0,154.77,13.61,154.77,13.61"/><path id="_085" class="cls-1" d="M794.98,767.13s34.48-47.62,122.92-40.82,102.05,30.61,102.05,30.61"/><path id="_084" class="cls-1" d="M1139,304.24s-86.74,12.18-134.36,70.01c-47.62,57.83-81.64,103.76-83.34,146.28s-18.71,95.24-27.21,112.24-52.72,70.1-13.61,92.88"/><path id="_083" class="cls-1" d="M890.69,370.85s3.28,78.18,45.86,98.62"/><path id="_082" class="cls-1" d="M957.02,731.09s73.13-9.9,110.55-36.25,171.78-46.76,227.91-36.56"/><path id="_081" class="cls-1" d="M1203.63,432.08s-168.38,52.47-25.51,223.53"/><path id="_080" class="cls-1" d="M1043.76,631.07s14.07,37.11,46.15,52.57"/><path id="_079" class="cls-1" d="M533.38,814.75s-161.82,27.21-205.85,0-130.77-113.55-209-121.41"/><path id="_078" class="cls-1" d="M506.31,882.79s-181.98-35.72-233.01-73.13-100.35-44.22-120.76-42.52"/><path id="_077" class="cls-1" d="M487.6,937.21s-53.82-23.7-78.59-54.55c-6.53-8.14-11.04-16.77-12.01-25.6"/><path id="_076" class="cls-1" d="M1108.22,311.39s12.08-98.72,124.33-112.32"/><path id="_075" class="cls-1" d="M1170.38,216.1s-10.97-86.77,33.25-96.97,103.75-13.61,119.06,8.5"/><path id="_074" class="cls-1" d="M1212.14,520.53s-44.66-85.05,33.79-134.37,88.66-71.99,117.58-81.92,91.84-12.18,127.56,0,71.43,47.62,91.84,52.01,91.84,31.6,98.65,39.26"/><path id="_073" class="cls-1" d="M1300.58,683.64s20.41-83.18,42.52-101.89-21.26-112.28-21.26-112.28"/><path id="_072" class="cls-1" d="M1411.13,469.46s-46.39,45.34-63.16,77.96"/><path id="_071" class="cls-1" d="M569.24,163.65s-51.02,28.62-103.75,35.42-40.82,30.61-35.72,45.92,4.77,77.8,4.77,77.8"/><path id="_070" class="cls-1" d="M361.74,243.22s-76.59-15.24-122.48,25.58"/><path id="_069" class="cls-1" d="M1066.83,97.02s-164.3,.05-153.22,119.08"/><path id="_068" class="cls-1" d="M1295.48,243.22s28.39,30.43,29.5,85.83"/><path id="_067" class="cls-1" d="M1591.53,358.53s-27.34-150.96-95.37-159.46-95.24,20.24-96.94,96.86"/><path id="_066" class="cls-1" d="M1356.7,180.36s37.47,23.21,51.05,60.07"/><path id="_065" class="cls-1" d="M1463.85,254.62s-42.03-6.23-62.68,14.18"/><path id="_064" class="cls-1" d="M1832.92,395.51s-39.12-19.56-64.63-9.35-71.43-74.76-71.43-74.76"/><path id="_063" class="cls-1" d="M1570.97,286.13s34.05-43,102.08-8.05,110.55,60.45,159.87,92.77,124.16,107.15,139.46,158.17,32.31,115.65,32.31,115.65"/><path id="_062" class="cls-1" d="M2011.51,702.5s5.1-30.61,0-45.15-76.54-124.93-136.06-165.08-87.61,16.17-87.61,16.17c0,0,113.12-5.55,136.93,75.55s28.91,104.44,32.31,176.11,37.42,136.74,28.91,207.1-45.92,94.21-61.23,90.79-66.33-49.34-91.84-52.75-71.43-6.8-68.03-54.43,27.21-93.54,68.03-115.65"/><path id="_061" class="cls-1" d="M1495.38,454.54s84.13,43.51,104.54,37.74,59.53-24.54,96.94-22.81,96.94,31.37,98.65,74.38"/><path id="_060" class="cls-1" d="M1764.89,557.94s39.12-32.31,95.24,23.81"/><path id="_059" class="cls-1" d="M1724.07,499.19s50.99,20.72,63.76,48.24"/><path id="_058" class="cls-1" d="M1399.22,384.46s39.16-49.66,147.97-25.92"/><path id="_057" class="cls-1" d="M1089.91,156.56s55.72,1.69,80.47,52.71"/><path id="_056" class="cls-1" d="M1529.35,216.1s78.28-16.98,116.09,0,141.53,70.12,142.39,126.04"/><path id="_055" class="cls-1" d="M1179.82,52.8s47.62,21.53,52.72,58.39c0,0,39.12-24.37,90.14-24.37s61.23,1.7,95.24,10.2,171.78,96.94,190.49,112.25"/><path id="_054" class="cls-1" d="M890.69,39.2s67.42,30.61,111.1,27.21,103.2-39.12,147.42-35.72,144.57,8.5,173.48,56.13"/><path id="_053" class="cls-1" d="M582.85,71.51s67.89-1.93,95.17-12.87S824.83,1.78,864.56,5.18s138.47,20.5,137.22,61.23"/><path id="_052" class="cls-1" d="M1081.6,43.85s-62.57-20.38-91.64-.84"/><path id="_051" class="cls-1" d="M152.55,336.83s57.83-53.03,68.03-72.44,93.54-89.14,149.67-114.65,124.16-23.81,166.68-30.61,167.41-40.82,226.57-40.82,191.21-11.11,238.29,28.46"/><path id="_050" class="cls-1" d="M176.36,304.24s62.93-132.38,185.39-173.2c53.37-54.16,135.72-114.85,349.34-87.19"/><path id="_049" class="cls-1" d="M459.31,86.82s-34.12,3.4-34.38,44.22"/><path id="_048" class="cls-1" d="M55.6,644.68c-37.42-73.13,42.31-121.37,42.31-121.37"/><path id="_047" class="cls-1" d="M409.01,882.66s-81.29-10.5-99.99-25.6-113.95-66.12-156.47-69.52-195.16-86.89-106.94-130.19,26.15-75.61,26.15-75.61"/><path id="_046" class="cls-1" d="M184.81,882.66s85.98-29.26,144.62-16.2"/><path id="_045" class="cls-1" d="M18.61,709.31s-15.74,100.09,86.31,173.35,289.13,177.01,401.39,175.31"/><path id="_044" class="cls-1" d="M35.99,662.85s-56.06-48.79-17.38-106.62c-13.61-41.29,3.4-80,27-86.77s69.52-58.87,106.94-56.63"/><path id="_043" class="cls-1" d="M176.36,313.08s-57.33-18.48-57.83,45.46-84.98,16.12-72.92,110.93"/><path id="_042" class="cls-1" d="M1744.48,801.15s22.86,58.69,27.59,111.83"/><path id="_041" class="cls-1" d="M1696.86,610.66s-23.81,141.17,47.62,98.65,115.65-76.55,136.06-40.83,8.7,77.91,8.7,77.91"/><path id="_040" class="cls-1" d="M1819.32,725.65s69.73-2.74,86.74,75.5,6.8,127.56,6.8,127.56"/><path id="_039" class="cls-1" d="M1851.63,912.98s68.03,17.43,90.14,37.84"/><path id="_038" class="cls-1" d="M1941.77,644.93s125.86,120.27,134.36,179.91,27.21,199.15,23.81,233.15-20.41,119.03-44.22,139.44-57.83,54.43-74.83,49.32-93.54-66.33-120.76-69.73"/><path id="_037" class="cls-1" d="M1310.23,991.64s99.2-62.93,209.75-11.91,98.65,56.17,107.15,78.26,32.31,73.11,88.44,74.81,177.29-31.41,162.63,50.63"/><path id="_036" class="cls-1" d="M1671.35,937.21s-35.79,75.9-58.71,93.23"/><path id="_035" class="cls-1" d="M1632.23,768.07s17.82,55.19,9.76,73.9-30.24,45.08-29.36,71.01"/><path id="_034" class="cls-1" d="M741.02,1226.34s-91.84-266.26-23.81-280.25,85.04-2.09,122.46-17.39,84.59-26.35,150.29-15.73,79.31-21.67,108.23-29.33,71.63,17.6,101.29-.99c29.67-18.58,61.98-53.92,96-55.81s125.86,3.21,168.38-51.21,95.18-174.23,107.12-210.42"/><path id="_033" class="cls-1" d="M1582.91,678.53s-32.68-10.35-63.96,5.11"/><path id="_032" class="cls-1" d="M1089.91,814.75s12.14,41.68,0,71.86"/><path id="_031" class="cls-1" d="M907.47,863.1s-2.84,23.94-14.91,49.88"/><path id="_030" class="cls-1" d="M775.03,850.69s-.92,62.71,19.95,86.53"/><path id="_029" class="cls-1" d="M689.99,1049.46s-130.96-96.94-153.07-98.65-62.93-109.1,15.31-87.72,137.76,120.72,137.76,120.72"/><path id="_028" class="cls-1" d="M633.87,1105.59s-57.83-65.26-81.64-75.15-61.23-51.96-64.63-63.24-15.35-33.39,28.89-38.49"/><path id="_027" class="cls-1" d="M763.49,1141.31s67.67-56.13,116.99-59.53,99.76,11.91,121.31,8.5,99.79-45.92,137.21-47.62,85.04,22.17,127.56,28.94,122.46-6.83,144.57,11.88,42.52,35.72,62.08,57.83"/><path id="_026" class="cls-1" d="M582.85,1134.5s32.31,52.72,51.02,81.64,54.08,64.63,77.22,73.13,61.33,39.12,83.9,30.61,90.14-35.72,112.48-42.52,144.14-51.25,187.84-49.43"/><path id="_025" class="cls-1" d="M890.69,1156.61s38.14,62.23,99.27,69.73,137.14-8.73,189.86,1.59,130.73,30.73,199.73,30.73,109.94,5.1,115.83-32.31"/><path id="_024" class="cls-1" d="M1261.46,1156.61s151.37,59.53,202.39,62.93,83.34-11.79,83.34-11.79"/><path id="_023" class="cls-1" d="M1440.52,1105.59s87.9,5.1,130.45,61.23,110.59,168.38,125.89,176.88,31.45,18.71,59.09,15.31"/><path id="_022" class="cls-1" d="M1744.48,1258.89s78.24-8.74,95.24,8.27,37.81,57.83,49.52,61.23,45,23.81,26.65,61.23-45.56,61.23-82.97,59.53-45.09-27.21-45.09-27.21"/><path id="_021" class="cls-1" d="M1693.05,1381.12s80.35,57.83,158.58,20.41"/><path id="_020" class="cls-1" d="M1495.38,1232.63s125.86,117.51,150.06,127.04,28.81,39.92,69.03-6.74"/><path id="_019" class="cls-1" d="M1805.33,1441.76s23.83,53.31,62.28,32.9,55.46-63.93,65.66-77.04,47.62-57.77,61.23-76.26,48.83-61.71,35.47-101.33"/><path id="_018" class="cls-1" d="M1996.2,1114.09s-13.61-37.38-71.43-56.11"/><path id="_017" class="cls-1" d="M1744.48,1042.57s10.92-57.15,43.35-48.08"/><path id="_016" class="cls-1" d="M2057.43,827.17s-17.01,46.9-15.31,69.96,15.31,86.09,15.31,120.91"/><path id="_015" class="cls-1" d="M1404.33,893.95s22.11,33.97,25.51,65.83"/><path id="_014" class="cls-1" d="M487.6,983.82s18.83,77.54,18.77,114.96,13.55,86.74,44.16,127.56,56.13,72.69,93.54,95.02,77.26,44.09,119.42,38.31,130.53-43.2,136.52-54.25,43.39-40.01,43.39-40.01"/><path id="_013" class="cls-1" d="M1193.03,1232.63s-21.31,112.96,41.05,181.49"/><path id="_012" class="cls-1" d="M937.48,1270.1s31.4,47.07,64.3,45.03,128.58-19.5,182.79,0"/><path id="_011" class="cls-1" d="M1293.21,1305.43s-69.17,62.08,5.67,158.46,144.57,168.94,174.33,187.09,109.13,69.17,176.03,26.08,197.29-146.27,130.39-257.39"/><path id="_010" class="cls-1" d="M1293.21,1305.43s175.75,11.06,264.19,136.92,123.59,145.13,123.59,145.13"/><path id="_009" class="cls-1" d="M1261.46,1367.51s-88.44,114.52-19.28,190.49,174.4,118.87,281.09,120.09"/><line id="_008" class="cls-1" x1="1095.31" y1="1003.54" x2="1107.51" y2="1049.46"/><path id="_007" class="cls-1" d="M1080.04,1134.5s-56.69-21.52-53.29-48.46"/><path id="_006" class="cls-1" d="M736.48,1058.31s29.69,50.03,58.5,60"/><path id="_005" class="cls-1" d="M1169.62,1009.21s.46,35.36,29.86,44.33"/><path id="_004" class="cls-1" d="M1012.01,959.78s10.16-19.81-10.23-45.28"/><path id="_003" class="cls-1" d="M1510.91,1071.6s-43.09,28.4-81.07,27.79"/><path id="_002" class="cls-1" d="M1832.89,1332.36s30.42-17.07,26.57-39.72"/><path id="_001" class="cls-1" d="M1594.82,1270.1s-4.1,36.48,17.79,66.38"/></svg>