<?xml version="1.0" encoding="utf-8"?>
<!-- Generator: Adobe Illustrator 26.4.0, SVG Export Plug-In . SVG Version: 6.00 Build 0)  -->
<svg version="1.1" id="Layer_1" xmlns="http://www.w3.org/2000/svg" xmlns:xlink="http://www.w3.org/1999/xlink" x="0px" y="0px"
	 viewBox="0 0 3000 3000" style="enable-background:new 0 0 3000 3000;" xml:space="preserve">
<style type="text/css">
	.st0{fill:none;}
</style>
<g>
	<path class="st0" d="M1293.56,2346.4c-5.23,29.29-10.47,58.58-15.7,87.87c-1.87,1.88-5.14,3.56-5.43,5.65
		c-14.47,106.92-29.94,213.74-42.24,320.91c-4.37,38.1-0.94,77.09-1.08,115.67c-671.36,0-1342.72,0-2014.07,0
		c0-153.95,0-307.91,0-461.86c29.5-3.88,58.99-7.77,88.49-11.66c22.32-4.16,44.48-9.7,66.98-12.27
		c139.53-15.9,278.69-39.24,406.46-97.5c182.95-83.42,361.07-177.47,541.01-267.47c5.99-3,9.33-11.31,13.9-17.14
		c0,0-1.51,1.35-1.51,1.35c11.29-2.63,23.56-3.25,33.72-8.22c57.08-27.89,113.9-56.36,170.24-85.72
		c14.5-7.55,26.97-19.02,40.37-28.68c0,0-1.59,1.2-1.59,1.2c19.28-8.46,39.19-15.75,57.73-25.63
		c43.62-23.26,81.21-65.2,138.57-21.82c24.95,18.86,62.06,21.04,92.63,33.33c8.49,3.41,13.35,15.87,19.5,23.7
		c23.09-27.63,47.62-59.53,75.31-88.4c7.46-7.78,27.02-12.35,36.72-8.23c96.8,41.1,192.82,84.05,288.78,127.12
		c28.52,12.8,69.71,21.02,80.46,43.27c11.21,23.19-7.19,60.84-13.01,92.09c-0.96,5.15-4.69,9.78-5.67,14.93
		C1327.14,2168.04,1310.38,2257.22,1293.56,2346.4z"/>
	<path d="M1229.12,2876.51c0.13-38.58-3.29-77.58,1.08-115.67c12.29-107.18,27.77-213.99,42.24-320.91
		c0.28-2.09,3.55-3.78,5.43-5.65c-9.13,91.48-18.66,182.93-27.23,274.46c-5.23,55.86-8.99,111.85-13.41,167.78
		C1234.51,2876.51,1231.82,2876.51,1229.12,2876.51z"/>
	<path d="M1311.26,2451.44c16.81-89.17,33.58-178.36,50.57-267.5c0.98-5.15,4.71-9.78,5.67-14.93c5.82-31.26,24.22-68.9,13.01-92.09
		c-10.75-22.26-51.94-30.47-80.46-43.27c-95.96-43.06-191.98-86.02-288.78-127.12c-9.7-4.12-29.26,0.45-36.72,8.23
		c-27.68,28.87-52.21,60.77-75.31,88.4c-6.15-7.83-11.01-20.29-19.5-23.7c-30.57-12.29-67.68-14.47-92.63-33.33
		c-57.37-43.38-94.95-1.44-138.57,21.82c-18.53,9.88-38.44,17.17-57.73,25.63c25.34-17.86,49.97-36.86,76.2-53.29
		c33.37-20.89,68.04-39.69,96.96-56.39c47.29,32.73,91.71,63.47,137.82,95.38c31.52-39.13,61.05-74.9,89.1-111.8
		c3.39-4.46-4.04-16.2-1.42-22.45c3.42-8.16,14.24-21.26,17.77-20.07c38.59,13.08,22.68-13.67,22.24-28.96
		c9.14-1.07,18.42-2.15,27.71-3.23c-51-5.2-44.82-35.25-37.78-67.32c-2.23-20.09-4.46-40.17-6.76-60.88
		c17.47,19.66,33.15,37.29,50.34,56.63c-1.73,0.94-9.82,5.34-23.85,12.96c13.95,16.33,27.04,31.67,42.98,50.33
		c-13.06,14.5-28.04,33.39-45.36,49.77c-21.01,19.87-21.14,39.42,3.56,51.66c38.65,19.15,79.68,33.48,119.68,49.91
		c6.62,2.72,13.6,4.97,19.54,8.8c7.28,4.69,14.07,15.97,20.33,15.45c34.65-2.9,63.94,10.95,94.22,24.04
		c6.32,2.73,17.01-4.67,25.69-7.4c7.88,11.9,13.16,27.82,24.13,34.96c33.48,21.77,69.08,12.32,106.12,5.56
		c77.21-14.09,155.45-22.49,242.94-34.56c-38.33-116.82-74.54-227.17-113.7-346.51c-23.46,57.14-42.17,102.73-60.88,148.31
		c-3.35-1.16-6.69-2.32-10.04-3.48c6.93-23.77,12.48-48.05,21.06-71.21c21.69-58.47,38.75-118.87,86.56-164.58
		c22.25-21.28,11.54-46.92-6.96-68.13c-30.48,16.02-67.64,27.75-35.28,78.68c-21.22-9.41-35.6-15.79-58.52-25.95
		c-30.36,61.36-61.53,121.48-90.04,182.85c-25.05,53.92-47.13,109.24-70.52,163.94c27.1-143.25,95.16-267.92,176-386.78
		c-2.31-3.51-4.62-7.02-6.93-10.52c-21.94,13.06-47.59,22.4-65.03,39.95c-36.29,36.5-68.18,77.38-101.97,116.39
		c-9.87,11.39-20.03,22.53-32.58,31.51c51.06-82.78,90.55-174.82,185.38-221.49c-11.68-28.51-18.92-40.89-46.87-13.15
		c-36.21,35.94-81.44,62.61-119.41,97c-13.37,12.11-16.92,35.18-24.7,53.35c-1.9,4.44-1.33,11.52-4.43,13.61
		c-47.57,32.18-93.91,66.82-144.26,93.94c-20.17,10.86-49.39,4.87-78.35,2.71c124.04-38.87,203.38-129.41,273.06-233.36
		c-30.15,9.82-59.72,19.46-89.3,29.1c-1.39-2.88-2.79-5.76-4.18-8.63c38.65-18.78,77.3-37.56,115.96-56.34
		c-0.83-4.44-1.66-8.88-2.49-13.32c-42.31,0-84.62,0-126.94,0c-0.27-1.68-0.54-3.36-0.8-5.04c30.38-7.4,60.77-14.8,91.15-22.2
		c0.75-3.76,1.5-7.53,2.25-11.29c-10.87-3.39-22.09-10.52-32.53-9.51c-40.85,3.96-84.29,3.24-121.46,17.84
		c-50.69,19.91-102.12,7.73-152.77,16.47c-48.79,8.42-100.16,1.82-150.4,1.82c-0.06-4.17-0.12-8.33-0.18-12.5
		c21.33-0.98,42.66-1.95,63.85-2.93c-10.42-17.79-43.87-41.13,11.39-41.25c4.64-0.01,9.25-13.25,19.11-17.82
		c-2.39,7.9-4.79,15.81-8.06,26.6c7.99,0,14.9,0,21.81,0c-0.19-17.04,4.11-35.77-1.53-50.75c-10.48-27.87-15.77-53.67-0.02-80.65
		c14.27-24.45,20.45-44.9-20.01-46.67c-4.93-0.22-9.43-10.17-19.02-21.28c21.58,2.1,35.63,3.47,49.81,4.86
		c3.53-25.88-16.43-34-38.61-44.4c-121.11-56.76-241.46-115.13-362.08-172.95c1.16-3.04,2.33-6.07,3.49-9.11
		c12.08,4.84,24.32,9.33,36.21,14.6c37.21,16.49,59.18,9.51,70.5-29.47c23.73-81.67,44.21-164.29,66.79-249.39
		c10.18,5.46,24.81,13.31,39.42,21.14c13.53-7.62,27.08-15.21,40.64-22.81c-5.18,11.45-10.37,22.89-15.55,34.34
		c15.79,23.85,31.57,47.7,47.36,71.55l1.15-0.85c-31.23-22.74-62.47-45.48-101.15-73.64c-26.4,97.97-51.32,190.47-74.9,277.99
		c57.33,29.94,117.62,63.73,180.04,92.93c26.45,12.37,59.23,24.54,85.76,19.4c23.67-4.59,39.71-1.85,58.76,7.71
		c42.42,21.29,85.23,41.81,125.54,61.5c17.47-30.81,31.95-56.34,43.69-77.04c-39.25-44.21-77.5-87.28-115.74-130.35
		c0,0-0.89,0.78-0.89,0.78c30.71,26.38,64.54,49.98,91.18,79.98c22.88,25.77,48.59,29.1,78.66,29.11
		c23.74,0.01,47.67,0.95,71.11,4.32c6.65,0.96,15.77,11.38,16.63,18.35c0.8,6.5-6.41,16.06-12.67,20.94
		c-15.84,12.35-33.12,22.83-57.48,39.2c-4.17-4.33-12.85-17.62-25.1-24.65c-8.42-4.82-26.68-5.63-32.04-0.05
		c-15.19,15.85-26.01,35.9-40.54,57.22c-3.67-1.09-10.86-3.8-18.3-5.37c-43.48-9.16-87.01-18.06-139.91-28.99
		c-5.48,80.59-10.68,157.06-15.83,232.65c87.01,16.19,363.42-52.64,360.24-87.86c15.64,2.24,31.22,4.48,46.81,6.72
		c3.1-4.07,6.2-8.13,9.29-12.2c-18.63-20.51-37.26-41.03-58.79-64.73c20.69,10.12,39.41,19.29,54.3,26.58
		c11.14-26.53,21.53-51.26,31.91-75.98l-0.48,0.1c12.02,22.46,24.04,44.92,34.61,64.66c10.08-10.16,19.3-19.47,32.54-32.82
		c-1.23-8.81-3.56-25.43-5.89-42.06c1.75-0.59,3.5-1.18,5.25-1.77c5.33,11.48,10.66,22.96,16.32,35.15
		c45.74-52.67,72.33-113.02,78.91-181.65c9.23-0.44,22.36,2.73,28.66-2.44c6.41-5.26,6.08-18.74,8.71-28.63
		c-21.97,1.85-10.17-19.59-16.61-24.92c-35.2-29.13-21.52-66.58-17.37-104.71c23.85,75.89,53.67,146.84,137.35,173.22
		c9.92-8.62,19.84-17.24,29.75-25.86c-20.58,21.66-15.46,61-53.43,72.34c-11.58,3.46-20.36,27.71-24.09,43.91
		c-9.03,39.22,22.81,41.58,62.41,44.86c-22.41,11.88-32.55,17.26-51.08,27.08c52.92,0.27,71.35,35.03,98.28,67.38
		c20.13-6.55,43.05-15.45,66.77-20.63c5.53-1.21,13.83,10.27,20.85,15.91c0,0-0.9-1.32-0.9-1.32c4.13,6.56,8.26,13.13,8.5,13.51
		c-44.7,4.67-91.61,9.57-144.91,15.15c25.45,17.43,41.56,28.46,57.67,39.5c0,4.07-0.01,8.13-0.01,12.2
		c21.45-11.32,42.9-22.63,64.32-33.94c3.49,5.62,10.49,16.87,17.48,28.13c0,0-0.94-0.98-0.94-0.98
		c-23.3,8.96-46.6,17.92-74.32,28.57c2.07,21.28,4.51,46.4,6.7,69.05c190.54,29.78,377.28,58.97,564.02,88.15
		c-0.74,5.3-1.48,10.6-2.23,15.9c-57.86-6.63-115.72-13.36-173.59-19.85c-67.21-7.54-134.57-13.92-201.63-22.67
		c-34.56-4.51-68.38-16.62-102.93-18.74c-33.3-2.05-62.93-6.81-93.84-22.17c-12.04-5.98-39.44,19.07-59.85,29.98
		c1.2,4.54,2.4,9.07,3.6,13.61c11.92,6.14,23.83,12.28,36.9,19.02c-17.37,4.23-34.12,8.31-56.85,13.85
		c-3.12-2.42-12.53-9.72-21.94-17.01c111.54,178.46,272.61,313.07,412.5,474.96c-110.38-97.95-215.45-191.2-327.53-290.66
		c-44.17,19.64-78.62,59.33-57.56,119.27c-17.5-20.42-31.92-37.26-46.35-54.1c-3.57,0.92-7.13,1.84-10.7,2.76
		c3.58,14.19,4.46,29.82,11.15,42.33c49.09,91.82,99.41,182.98,149.13,274.47c4.09,7.53,6.59,15.93,3.69,26.9
		c-54.96-98.31-109.91-196.62-164.61-294.46c-42.53,10.55-45.07,17.4-33.88,61.69c25.77,102.01,50.33,204.32,75.13,306.57
		c0.86,3.56-1,7.78-7.68,13.18c-10.74-40.63-22.69-80.99-31.7-122c-4.59-20.89-13.73-31.72-35.13-28.09
		c-80.1,13.59-160.54,25.71-239.79,43.23c-15.86,3.51-34.28,26.26-39.1,43.61c-19.98,71.79-34.92,144.99-52.26,217.53
		C1332.4,2370.41,1321.59,2410.87,1311.26,2451.44z M1678.68,1168.98c-18.79,44.63-36.77,84.87-52.36,126.02
		c-4.05,10.7-3.36,33.92-0.23,34.79c14.39,4.02,32.57,7.03,45.37,1.33c21.94-9.77,40.89-26.29,60.52-39.59
		c-4.66-15.66-8.65-29.06-13.63-45.76c-10.98,10.13-19.27,17.78-27.56,25.43C1705.9,1237.15,1712.85,1206.28,1678.68,1168.98z
		 M1652.39,1749.11c45.3-9.36,50.65-17.5,40.62-55.89c-4-15.33-5-31.9-11.5-46c-9.66-20.94-22.99-40.19-34.75-60.15
		c-4.5,1.76-9.01,3.53-13.51,5.29C1639.61,1644.48,1645.98,1696.61,1652.39,1749.11z M1779.62,1643.83
		c-29.9-16.81-57.07-32.08-84.23-47.35c-2.68,1.81-5.36,3.62-8.04,5.43c13.45,33.25,26.91,66.51,40.28,99.56
		c28.35-8.99,48.98-18.73,27.79-48.99C1764.77,1649.14,1771.75,1646.65,1779.62,1643.83z M1685.13,1078.29
		c-3.06-5.43-6.13-10.86-9.19-16.29c-14.81,4.9-34.86,5.53-43.16,15.75c-11.32,13.94-13.69,35.17-19.9,53.28
		c4.36,2.83,8.71,5.66,13.07,8.48C1645.67,1119.11,1665.4,1098.7,1685.13,1078.29z M1649.38,1390.86
		c8.63-11.32,19.87-26.06,35.13-46.07c-29.33,0-50.35,0-80.31,0C1620.83,1361.75,1632.83,1373.99,1649.38,1390.86z M1571.07,1443.61
		c3.38-2.65,6.77-5.31,10.15-7.96c-13.39-20.32-26.17-41.1-40.75-60.52c-2.46-3.28-12.7-0.71-19.34-0.84
		c0.83,5.38-0.18,12.3,2.8,15.89C1539.07,1408.47,1555.25,1425.89,1571.07,1443.61z"/>
	<path d="M331.9,2008.62c-4.58,5.83-7.91,14.15-13.9,17.14c-179.94,90-358.06,184.05-541.01,267.47
		c-127.77,58.26-266.92,81.6-406.46,97.5c-22.5,2.56-44.66,8.1-66.98,12.27c33.33-9.49,66.1-23.46,100.08-27.73
		c200.4-25.16,385.9-93.61,564.23-186.05C88.1,2126.88,210.47,2068.67,331.9,2008.62z"/>
	<path d="M833.33,593.17c5.18-11.45,10.37-22.89,15.55-34.34c33.44-33.87,66.46-68.18,100.49-101.44
		c18.07-17.67,37.9-33.54,57.73-50.92c-13.85-26.07-26.48-49.84-39.11-73.61c3.16-1.65,6.32-3.29,9.49-4.94
		c38.8,69.76,77.6,139.51,116.41,209.27c-2.94,1.68-5.87,3.36-8.81,5.04c-19.56-33.94-39.11-67.89-61.41-106.58
		c-28.88,26.48-54.94,52.52-83.27,75.78C905.7,539.9,869.1,566.03,833.33,593.17z"/>
	<path d="M549.47,242.61c6.36-12.86,10.3-27.88,19.49-38.2c37.49-42.09,75.16-84.23,115.67-123.32
		c22.02-21.25,49.87-36.43,78.76-51.11c-58.46,85.18-138.34,151.61-205.69,228.99C554.96,253.52,552.21,248.06,549.47,242.61z"/>
	<path d="M-502.16,240.82c133.78,77.04,267.55,154.08,401.33,231.12c-2.71,4.54-5.42,9.08-8.13,13.62
		c-132.18-80.5-276.39-140.87-399.58-236.43C-506.41,246.36-504.29,243.59-502.16,240.82z"/>
	<path d="M376.24,731.14C235.04,664.59,91.01,603.62-37.53,512.1C102.31,581.3,242.16,650.49,382,719.68
		C380.08,723.5,378.16,727.32,376.24,731.14z"/>
	<path d="M2525.82,2333.24c-113.75-133.69-227.49-267.38-341.24-401.06c2.85-2.48,5.71-4.96,8.56-7.44
		c114.63,133.11,229.26,266.21,343.89,399.32C2533.29,2327.12,2529.55,2330.18,2525.82,2333.24z"/>
	<path d="M549.47,242.61c2.75,5.45,5.49,10.91,8.24,16.36c1.64,16.54-1.51,35.7,5.82,49.11c20.07,36.7,44.55,70.98,67.29,106.22
		c-2.77,1.79-5.54,3.59-8.3,5.38c-16.6-24.74-30.8-51.59-50.3-73.78c-39.3-44.72-81.35-87.01-122.5-130.09
		c-36.07-37.75-72.46-75.2-108.71-112.78c-2.94,3.04-5.89,6.09-8.83,9.13c59.57,55.13,119.15,110.25,186.52,172.6
		C536.37,260.55,542.92,251.58,549.47,242.61z"/>
	<path d="M500.98,1288.4c88.51,0,177.01,0,265.52,0c9.41,0,18.83-0.09,28.24,0.01c20.66,0.22,50.83-7.88,60.03,2.55
		c20.09,22.78,29.83,54.85,42.88,83.54c1.47,3.23-2.99,9.17-4.71,13.86c-4.26,1.28-8.53,2.55-12.79,3.83
		c-10.09-25.75-20.19-51.5-35.1-89.56c-107.37,0-225.74,0-344.12,0C500.94,1297.89,500.96,1293.14,500.98,1288.4z"/>
	<path d="M2486.01,928.69c108.58-19.45,217.16-38.91,325.74-58.36c0.62,3.51,1.25,7.01,1.87,10.52
		c-107.86,19.76-215.72,39.52-323.58,59.28C2488.69,936.31,2487.35,932.5,2486.01,928.69z"/>
	<path d="M2009.55,2288.95c-15.04-16.67-35.09-30.98-44.21-50.43c-30.22-64.52-56.56-130.87-84.22-196.59
		c-2.36-5.6-3.48-11.73,0.93-19.97c42.47,89,84.94,178,127.41,266.99L2009.55,2288.95z"/>
	<path d="M1896.01,1210.78c6.76-12.27,13.51-24.55,21.27-38.64c42.67,41.68,104.94-6.57,149.14,44.45
		c-62.41-2.53-116.96-4.75-171.44-6.88C1895.07,1209.79,1896.01,1210.78,1896.01,1210.78z"/>
	<path d="M1893.87,1137.56c1.46-7.34,2.92-14.68,4.07-20.47c65.83-25.16,131.99-50.44,198.15-75.73c1.27,3.12,2.54,6.24,3.81,9.36
		c-69,28.46-137.99,56.92-206.95,85.44C1892.97,1136.23,1893.87,1137.56,1893.87,1137.56z"/>
	<path d="M2497.76,1426.55c95.16,16.79,190.32,33.58,285.48,50.36c-0.45,3.17-0.89,6.33-1.34,9.5
		c-95.19-16.66-190.38-33.32-285.58-49.99C2496.81,1433.14,2497.28,1429.85,2497.76,1426.55z"/>
	<path d="M880.69,664.72c66.95,55.77,133.95,111.49,200.65,167.56c2.1,1.77,1.15,7.17,1.63,10.88c0,0,0.88-0.78,0.88-0.78
		c-11.99-7.76-24.97-14.35-35.79-23.5c-43.53-36.79-86.87-73.85-129.23-111.97c-13.94-12.54-24.74-28.59-36.98-43.04
		C881.84,663.87,880.69,664.72,880.69,664.72z"/>
	<path d="M574.71,1887.34c-13.4,9.67-25.87,21.13-40.37,28.68c-56.34,29.36-113.16,57.83-170.24,85.72
		c-10.16,4.96-22.43,5.59-33.72,8.22C411.83,1969.09,493.27,1928.22,574.71,1887.34z"/>
	<path d="M874.9,145.04c31.86,53.64,63.72,107.28,95.58,160.92c-3.57,2.11-7.14,4.21-10.71,6.32
		c-32.05-53.51-64.1-107.03-96.16-160.54C867.37,149.5,871.14,147.27,874.9,145.04z"/>
	<path d="M1442.42,1058.42c-12.18-48.22-24.36-96.45-36.54-144.67c7.03-1.15,14.05-2.29,21.08-3.44
		c5.05,49.37,10.1,98.75,15.07,148.17C1441.94,1058.52,1442.42,1058.42,1442.42,1058.42z"/>
	<path d="M2009.46,2288.95c23.37,47.89,46.73,95.79,70.1,143.68c-4.66,2-9.31,3.99-13.97,5.99
		c-18.68-49.89-37.37-99.78-56.05-149.67C2009.55,2288.95,2009.46,2288.95,2009.46,2288.95z"/>
	<path d="M648.71,429.15c32.46,35.99,64.93,71.99,97.39,107.98c0.73-0.64,1.46-1.29,2.19-1.93
		c-34.19-34.29-68.39-68.57-102.58-102.86C646.71,431.27,647.71,430.21,648.71,429.15z"/>
	<path d="M263.13,1291.72c59.25,0,118.5,0,177.75,0c0.02,1.19,0.05,2.37,0.07,3.56c-59.22,0-118.43,0-177.65,0
		C263.24,1294.1,263.18,1292.91,263.13,1291.72z"/>
	<path d="M1760.49,2177.53c11.69,46.58,23.37,93.17,35.06,139.75c-3.38,0.87-6.75,1.74-10.13,2.6
		c-11.24-46.12-22.48-92.24-33.73-138.35C1754.62,2180.2,1757.55,2178.87,1760.49,2177.53z"/>
	<path d="M-681.89,1281.64c39.69,0,79.38,0,119.07,0c0,2.51,0,5.03,0,7.54c-39.82,0-79.65,0-119.47,0
		C-682.16,1286.66-682.02,1284.15-681.89,1281.64z"/>
	<path d="M-126.62,1290.05c53.34,0,106.68,0,160.02,0c0.01,1.95,0.01,3.9,0.02,5.86c-53.13,0-106.26,0-159.38,0
		C-126.18,1293.95-126.4,1292-126.62,1290.05z"/>
</g>
</svg>
