<?xml version="1.0" encoding="utf-8"?>
<!-- Generator: Adobe Illustrator 26.4.0, SVG Export Plug-In . SVG Version: 6.00 Build 0)  -->
<svg version="1.1" id="Meditation_SVG_xA0_Image_00000129202246766667873760000014370397488725507503_"
	 xmlns="http://www.w3.org/2000/svg" xmlns:xlink="http://www.w3.org/1999/xlink" x="0px" y="0px" viewBox="0 0 768 768"
	 style="enable-background:new 0 0 768 768;" xml:space="preserve">
<style type="text/css">
	.st0{fill:none;stroke:#FFFFFF;stroke-width:3;stroke-miterlimit:10;}
</style>
<path id="Inner_left_arm" class="st0" d="M278.56,536.67c0,0-36.89,6.11-42.78,11.22c-5.89,5.11-23.78-4.22-23.78-4.22
	s44-39,48.67-43.44c4.67-4.44,12.89-12,13.89-14.11s6-17.89,8.33-27s8.78-41.22,8.78-41.22l4.11,36.78c0,0,0.78,5.44-1.67,19.78
	C291.67,488.78,278.56,536.67,278.56,536.67z"/>
<path id="Inner_left_palm" class="st0" d="M89.89,551.56c0,0-0.78,14.78,6.78,19.89C100.67,565.78,102.44,551.56,89.89,551.56z"/>
<path id="Inner_left_arm_00000160174999365268881300000010127641493619214500_" class="st0" d="M486.33,536.67
	c0,0,36.89,6.11,42.78,11.22c5.89,5.11,23.78-4.22,23.78-4.22s-44-39-48.67-43.44c-4.67-4.44-12.89-12-13.89-14.11s-6-17.89-8.33-27
	s-8.78-41.22-8.78-41.22l-4.11,36.78c0,0-0.78,5.44,1.67,19.78C473.22,488.78,486.33,536.67,486.33,536.67z"/>
<path id="Inner_left_palm_00000151508340427286318110000002765922358334418361_" class="st0" d="M675,551.56
	c0,0,0.78,14.78-6.78,19.89C664.22,565.78,662.44,551.56,675,551.56z"/>
<path id="Body_Outline_00000181783641678061758890000002250766160089641365_" class="st0" d="M381.22,648.22
	c2.67,1,32.89,8.67,38.89,9.89c6,1.22,47.56,6.67,55.33,7.44c7.78,0.78,42.44,2,55,2s53.22,0.56,58-0.44s9.44-2.33,11.56-3.89
	s5.11-4.44,6.89-5.22c1.78-0.78,12.22-5.44,15.78-9.33c3.56-3.89,11.78-11.11,13.44-17.78c1.67-6.67,3-10.56,3-14.67
	c0-4.11-1-17.56-10-24.56c11.11,6.89,16.33,10.22,19.22,12.56c2.89,2.33,8.11,6.22,9.89,7.56s4.78,3.11,7,3.78
	c2.22,0.67,6.44,1.89,8.11,2.56c1.67,0.67,5.22,2.22,6.56,0.56c1.33-1.67-0.33-4.67-1.78-5.67c-1.44-1-3.11-2.11-5.89-3.11
	s-11.89-10.56-14.67-13.56c3.67-1.89,13.89-4.78,18.11-5.67c4.22-0.89,12.89-3,15-4c2.11-1,4.89-1.44,6.44-1.56
	c1.56-0.11,5.56-1.67,5.56-3.33s0-3.67-2.44-4.44s-3.89-0.89-3.89-0.89s3.11-5.44,3.44-7.78c0.33-2.33-0.22-2.33,0.89-4.22
	c1.11-1.89,2.33-6-0.22-6.89c-2.56-0.89-5.78,1.67-6.11,3c-0.33,1.33-1.11,4.56-2,5.78c-0.89,1.22-3.56,7.11-4.22,7.89
	c-0.67,0.78-2.11,1.33-2.11,1.33s-4.11,0.56-3.67-2.33c0.44-2.89,2-4,2-6.67c0-2.67,0.89-22.22,0-26.67
	c-0.89-4.44-4.78-6.44-5.56-5.67c-0.89-1.22,0.33-0.78-0.89-1.22c-1.22-0.44-2.67-0.78-4.56,1.22c-1.89,2-5.33,6-7.89,7.33
	c-2.56,1.33-5.33,2.78-7.22,3.22c-1.89,0.44-4.89,0.67-5.89,1.33c-1,0.67-1,1-2.33,1.22s-21.44-1.33-30.44,2.22
	c-5.56-4.11-11.44-8.44-17.67-15.11c-6.22-6.67-20.33-20.33-25.44-26.78c-5.11-6.44-15.22-19.11-19-23.44
	c-3.78-4.33-19.56-23-21.44-24.78c-0.78-3-3.44-10.56-5.33-13.89c-1.89-3.33-2.44-26.67-3-35.67c-0.56-9-4.11-41.89-4.33-47.89
	s0.67-22.78,0.56-27.78c-0.11-5-1-25.89-2.44-30.44c-1.44-4.56-4.22-16.67-7-20.67c-2.78-4-6.67-11.56-9.56-13.33
	s-10.22-7.11-15.44-8.67c-5.22-1.56-14.22-5.67-20.22-8.11s-16.33-6.44-22.22-9.78c-5.89-3.33-14-8.67-18.44-12.44
	c-4.44-3.78-10-9.67-10.22-11.44c-0.22-1.78-0.44-17.56-0.44-17.56s6.44-5.89,6.67-10c0.22-4.11,1.56-21.78,1.56-21.78
	s3.11,4.56,5.22-0.44s9.56-29.11,9.22-33.33c-0.33-4.22-1.44-8.78-6.56-3.22c0,0,2-32,0-39s-9.67-40-50-40h-3.11
	c-40.33,0-48,33-50,40s0,39,0,39c-5.11-5.56-6.22-1-6.56,3.22c-0.33,4.22,7.11,28.33,9.22,33.33c2.11,5,5.22,0.44,5.22,0.44
	s1.33,17.67,1.56,21.78c0.22,4.11,6.67,10,6.67,10s-0.22,15.78-0.44,17.56c-0.22,1.78-5.78,7.67-10.22,11.44
	c-4.44,3.78-12.56,9.11-18.44,12.44c-5.89,3.33-16.22,7.33-22.22,9.78s-15,6.56-20.22,8.11c-5.22,1.56-12.56,6.89-15.44,8.67
	s-6.78,9.33-9.56,13.33c-2.78,4-5.56,16.11-7,20.67c-1.44,4.56-2.33,25.44-2.44,30.44s0.78,21.78,0.56,27.78
	c-0.22,6-3.78,38.89-4.33,47.89c-0.56,9-1.11,32.33-3,35.67c-1.89,3.33-4.56,10.89-5.33,13.89c-1.89,1.78-17.67,20.44-21.44,24.78
	c-3.78,4.33-13.89,17-19,23.44s-19.22,20.11-25.44,26.78c-6.22,6.67-12.11,11-17.67,15.11c-9-3.56-29.11-2-30.44-2.22
	c-1.33-0.22-1.33-0.56-2.33-1.22c-1-0.67-4-0.89-5.89-1.33c-1.89-0.44-4.67-1.89-7.22-3.22c-2.56-1.33-6-5.33-7.89-7.33
	c-1.89-2-3.33-1.67-4.56-1.22s0,0-0.89,1.22c-0.78-0.78-4.67,1.22-5.56,5.67c-0.89,4.44,0,24,0,26.67c0,2.67,1.56,3.78,2,6.67
	c0.44,2.89-3.67,2.33-3.67,2.33s-1.44-0.56-2.11-1.33s-3.33-6.67-4.22-7.89c-0.89-1.22-1.67-4.44-2-5.78
	c-0.33-1.33-3.56-3.89-6.11-3c-2.56,0.89-1.33,5-0.22,6.89c1.11,1.89,0.56,1.89,0.89,4.22c0.33,2.33,3.44,7.78,3.44,7.78
	s-1.44,0.11-3.89,0.89c-2.44,0.78-2.44,2.78-2.44,4.44s4,3.22,5.56,3.33c1.56,0.11,4.33,0.56,6.44,1.56c2.11,1,10.78,3.11,15,4
	c4.22,0.89,14.44,3.78,18.11,5.67c-2.78,3-11.89,12.56-14.67,13.56S88.22,612,86.78,613s-3.11,4-1.78,5.67
	c1.33,1.67,4.89,0.11,6.56-0.56c1.67-0.67,5.89-1.89,8.11-2.56c2.22-0.67,5.22-2.44,7-3.78s7-5.22,9.89-7.56
	c2.89-2.33,8.11-5.67,19.22-12.56c-9,7-10,20.44-10,24.56c0,4.11,1.33,8,3,14.67c1.67,6.67,9.89,13.89,13.44,17.78
	c3.56,3.89,14,8.56,15.78,9.33s4.78,3.67,6.89,5.22s6.78,2.89,11.56,3.89c4.78,1,45.44,0.44,58,0.44s47.22-1.22,55-2
	c7.78-0.78,49.33-6.22,55.33-7.44c6-1.22,32.2-8.74,34.87-9.74L381.22,648.22z"/>
</svg>
